<?xml version="1.0" encoding="UTF-8"?>
<svg id="Capa_2" data-name="Capa 2" xmlns="http://www.w3.org/2000/svg" viewBox="0 0 323.35 64.97">
  <defs>
    <style>
      .cls-1 {
        fill: #222651;
      }

      .cls-2 {
        fill: #28559f;
      }
    </style>
  </defs>
  <g id="Capa_1-2" data-name="Capa 1">
    <g>
      <path class="cls-1" d="M181.3,27.19l-6.85-9.49v14.68h-1.62V14.54h1.34l7.85,10.85,7.8-10.85h1.38v17.84h-1.62v-14.72l-6.85,9.54h-1.43Z"/>
      <path class="cls-1" d="M210.88,18.3h1.62v14.08h-1.62v-1.73c-1.51,1.51-3.31,2.27-5.4,2.27s-3.87-.74-5.35-2.22-2.22-3.26-2.22-5.35,.74-3.87,2.22-5.35c1.48-1.48,3.26-2.22,5.35-2.22s3.89,.76,5.4,2.27v-1.75Zm0,4.52c-.29-.6-.68-1.17-1.19-1.69-1.17-1.15-2.57-1.73-4.22-1.73s-3.04,.58-4.21,1.74-1.74,2.56-1.74,4.21,.58,3.04,1.74,4.21,2.56,1.74,4.21,1.74,3.05-.58,4.22-1.75c.5-.5,.9-1.06,1.19-1.67v-5.06Z"/>
      <path class="cls-1" d="M221.9,22.41v9.97h-1.62v-14.05h1.62v1.41c1.35-1.3,2.98-1.95,4.86-1.95v1.62c-1.5,0-2.77,.53-3.83,1.58-.43,.43-.78,.91-1.04,1.43Z"/>
      <path class="cls-1" d="M234.55,14v2.16h-1.62v-2.16h1.62Zm0,4.32v14.05h-1.62v-14.05h1.62Z"/>
      <path class="cls-1" d="M245.23,30.1c1.04,.79,2.23,1.19,3.59,1.19,1.64,0,3.05-.58,4.22-1.75l1.15,1.15c-1.49,1.48-3.27,2.23-5.36,2.23s-3.87-.74-5.35-2.22-2.22-3.26-2.22-5.35,.74-3.87,2.22-5.35c1.48-1.48,3.26-2.22,5.35-2.22s3.88,.74,5.36,2.21c.19,.2,.37,.41,.54,.63l-9.49,9.49Zm7.2-9.49c-1.04-.81-2.24-1.21-3.61-1.21-1.64,0-3.04,.58-4.21,1.74s-1.74,2.56-1.74,4.21c0,1.37,.4,2.57,1.21,3.61l8.34-8.35Z"/>
      <path class="cls-1" d="M261.47,14.54h1.62v3.78h2.16v1.62h-2.16v12.43h-1.62V14.54Z"/>
      <path class="cls-1" d="M271.41,14.54h1.62v3.78h2.16v1.62h-2.16v12.43h-1.62V14.54Z"/>
      <path class="cls-1" d="M187.8,54.24h-11.93l-1.25,2.7h-1.79l8.32-17.84h1.38l8.35,17.84h-1.82l-1.25-2.7Zm-.76-1.62l-5.21-11.13-5.21,11.13h10.42Z"/>
      <path class="cls-1" d="M198.28,39.11v17.84h-1.62v-17.84h1.62Z"/>
      <path class="cls-1" d="M217.18,53.66l1.25,1.04c-.16,.19-.33,.38-.52,.56-1.49,1.48-3.27,2.23-5.36,2.23s-3.87-.74-5.35-2.22-2.22-3.26-2.22-5.35,.74-3.87,2.22-5.35c1.48-1.48,3.26-2.22,5.35-2.22s3.88,.74,5.36,2.21c.19,.2,.36,.4,.52,.58l-1.25,1.04c-.13-.16-.27-.32-.41-.48-1.17-1.15-2.57-1.73-4.22-1.73s-3.04,.58-4.21,1.74-1.74,2.56-1.74,4.21,.58,3.04,1.74,4.21,2.56,1.74,4.21,1.74,3.05-.58,4.22-1.75c.14-.14,.28-.3,.41-.45Z"/>
      <path class="cls-1" d="M237.09,42.87h1.62v14.08h-1.62v-1.73c-1.51,1.51-3.31,2.27-5.4,2.27s-3.87-.74-5.35-2.22-2.22-3.26-2.22-5.35,.74-3.87,2.22-5.35c1.48-1.48,3.26-2.22,5.35-2.22s3.89,.76,5.4,2.27v-1.75Zm0,4.52c-.29-.6-.68-1.17-1.19-1.69-1.17-1.15-2.57-1.73-4.22-1.73s-3.04,.58-4.21,1.74-1.74,2.56-1.74,4.21,.58,3.04,1.74,4.21,2.56,1.74,4.21,1.74,3.05-.58,4.22-1.75c.5-.5,.9-1.06,1.19-1.67v-5.06Z"/>
      <path class="cls-1" d="M257.85,56.94v-1.41c-1.35,1.3-2.98,1.95-4.86,1.95s-3.6-.68-4.97-2.05c-1.37-1.37-2.05-3.03-2.05-4.97v-7.57h1.62v7.57c0,1.5,.53,2.78,1.58,3.83,1.05,1.05,2.33,1.58,3.83,1.58s2.77-.53,3.83-1.58c.43-.43,.78-.91,1.04-1.43v-9.97h1.62v14.05c0,1.95-.68,3.6-2.05,4.97-1.37,1.37-3.03,2.05-4.97,2.05v-1.62c1.5,0,2.77-.53,3.83-1.58s1.58-2.33,1.58-3.83Z"/>
      <path class="cls-1" d="M279.14,42.87h1.62v14.08h-1.62v-1.73c-1.51,1.51-3.32,2.27-5.41,2.27s-3.87-.74-5.35-2.22-2.22-3.26-2.22-5.35,.74-3.87,2.22-5.35c1.48-1.48,3.26-2.22,5.35-2.22s3.89,.76,5.41,2.27v-1.75Zm0,4.52c-.29-.6-.68-1.17-1.19-1.69-1.17-1.15-2.57-1.73-4.22-1.73s-3.04,.58-4.21,1.74-1.74,2.56-1.74,4.21,.58,3.04,1.74,4.21,2.56,1.74,4.21,1.74,3.05-.58,4.22-1.75c.5-.5,.9-1.06,1.19-1.67v-5.06Z"/>
      <path class="cls-1" d="M300.44,56.94v-1.73c-1.51,1.51-3.31,2.27-5.4,2.27s-3.87-.74-5.35-2.22-2.22-3.26-2.22-5.35,.74-3.87,2.22-5.35c1.48-1.48,3.26-2.22,5.35-2.22s3.89,.76,5.4,2.27v-1.75h1.62v14.08c0,1.95-.68,3.6-2.05,4.97-1.37,1.37-3.03,2.05-4.97,2.05v-1.62c1.5,0,2.77-.53,3.83-1.58,1.05-1.05,1.58-2.33,1.58-3.83Zm0-9.56c-.29-.6-.68-1.17-1.19-1.69-1.17-1.15-2.57-1.73-4.22-1.73s-3.04,.58-4.21,1.74-1.74,2.56-1.74,4.21,.58,3.04,1.74,4.21,2.56,1.74,4.21,1.74,3.05-.58,4.22-1.75c.5-.5,.9-1.06,1.19-1.67v-5.06Z"/>
      <path class="cls-1" d="M321.73,42.87h1.62v14.08h-1.62v-1.73c-1.51,1.51-3.32,2.27-5.41,2.27s-3.87-.74-5.35-2.22-2.22-3.26-2.22-5.35,.74-3.87,2.22-5.35c1.48-1.48,3.26-2.22,5.35-2.22s3.89,.76,5.41,2.27v-1.75Zm0,4.52c-.29-.6-.68-1.17-1.19-1.69-1.17-1.15-2.57-1.73-4.22-1.73s-3.04,.58-4.21,1.74-1.74,2.56-1.74,4.21,.58,3.04,1.74,4.21,2.56,1.74,4.21,1.74,3.05-.58,4.22-1.75c.5-.5,.9-1.06,1.19-1.67v-5.06Z"/>
      <path class="cls-2" d="M150.29,26.9c-.1-.29-.21-.5-.34-.64-.24-.25-.48-.22-.61-.18-.17,.05-.28,.18-.3,.36-.01,.12,0,.26,.07,.44l.04,.11c.3,.67,.17,1.35-.41,2.06-.61,.75-1.51,1.47-2.67,2.15-1.05,.61-2.18,1.18-3.36,1.71,.33-1.65,.57-3.37,.71-5.14,.15-1.93,.18-3.81,.09-5.58-.1-1.78-.38-3.36-.84-4.69-.58-1.66-1.54-2.9-2.86-3.68-1.33-.79-2.71-1.02-4.08-.69-1.62,.37-3.49,1.22-5.57,2.53-2.06,1.29-4.28,2.93-6.57,4.86-2.3,1.93-4.67,4.09-7.04,6.43-2.38,2.34-4.73,4.81-6.99,7.32-2.26,2.52-4.41,5.04-6.38,7.49-1.97,2.45-3.74,4.78-5.25,6.94-1.51,2.15-2.71,4.06-3.58,5.68-.78,1.52-1.36,2.97-1.71,4.28-.3,1.14-.36,2.16-.16,3.04-.28-.16-.55-.34-.8-.52-1.09-.81-2.01-1.85-2.74-3.1-.73-1.26-1.23-2.73-1.47-4.36-.3-2.03-.27-4.14,.1-6.29,.38-2.18,.99-4.38,1.83-6.55,.84-2.18,1.87-4.38,3.05-6.54,1.19-2.17,2.43-4.3,3.69-6.33,1.27-2.05,2.54-4.02,3.77-5.86,1.25-1.87,2.37-3.61,3.32-5.19,.97-1.59,1.74-3.03,2.29-4.28,.6-1.36,.82-2.48,.68-3.41-.12-.81-.45-1.51-.99-2.1-.43-.47-1.24-.99-2.67-.81-.88,.11-1.88,.52-3.06,1.25-1.89,1.17-3.89,2.7-5.92,4.54-2.01,1.82-4.07,3.89-6.12,6.13-2.04,2.24-4.08,4.65-6.05,7.16-1.98,2.53-3.88,5.07-5.63,7.56-1.76,2.5-3.4,4.97-4.85,7.35-.15,.25-.3,.49-.45,.74,.03-.06,.05-.12,.08-.19,.99-2.33,2.15-4.71,3.45-7.1,1.32-2.4,2.72-4.79,4.17-7.09,1.49-2.36,2.84-4.58,4.03-6.59,1.21-2.06,2.2-3.91,2.93-5.49,.8-1.72,1.11-3.06,.95-4.1-.1-.71-.43-1.26-.97-1.65-.54-.38-1.23-.53-2.03-.42-1.06,.14-2.28,.64-3.72,1.53-1.35,.84-2.81,1.88-4.33,3.09-1.52,1.22-3.08,2.58-4.63,4.05-1.54,1.45-3.02,2.9-4.4,4.29-1.38,1.39-2.63,2.69-3.71,3.86-1.12,1.22-1.94,2.13-2.5,2.78-3.53,4.13-7.14,8.82-10.76,13.93-2.78,3.93-5.57,8.18-8.34,12.68,.28-.74,.61-1.51,.99-2.3,1.26-2.58,2.8-5.32,4.58-8.14,1.79-2.85,3.75-5.81,5.82-8.78,2.09-3,4.05-5.99,5.81-8.89,1.77-2.91,3.25-5.75,4.4-8.46,.59-1.39,1.03-2.74,1.32-4.03,.34-1.16,.54-2.26,.61-3.27,.12-1.74-.3-3.22-1.22-4.39-.93-1.19-2.12-1.87-3.53-2.02-1.65-.2-3.73-.04-6.18,.47-2.43,.51-5.13,1.28-8.03,2.3-2.9,1.02-5.95,2.23-9.09,3.61-3.14,1.38-6.29,2.88-9.39,4.46-3.09,1.58-6.08,3.2-8.89,4.81-2.8,1.61-5.36,3.19-7.62,4.69-2.25,1.5-4.12,2.87-5.56,4.08-1.33,1.15-2.43,2.3-3.27,3.41-.87,1.14-1.34,2.23-1.41,3.25-.03,.43,.04,.89,.2,1.37,.33,.96,.92,1.66,1.77,2.09,.3,.15,.6,.28,.88,.38,.49,.18,.94,.28,1.35,.3,.9,.05,1.36-.14,1.39-.57,.01-.21-.12-.44-.45-.73-.52-.38-.89-.83-1.11-1.34-.22-.52-.32-1.07-.28-1.64,.09-1.42,.78-2.71,2.05-3.84,1.23-1.1,2.86-2.41,4.85-3.88,1.98-1.46,4.25-3.04,6.74-4.69,2.49-1.64,5.19-3.31,8.02-4.95,2.83-1.64,5.76-3.23,8.69-4.71,2.93-1.48,5.85-2.8,8.68-3.92,2.83-1.12,5.54-1.98,8.06-2.58,2.51-.59,4.79-.83,6.8-.72,1.21,.07,2.2,.39,2.94,.96,.71,.55,1.03,1.5,.94,2.84-.08,1.23-.41,2.75-.98,4.55-.58,1.8-1.29,3.69-2.12,5.6-.13,.3-.26,.58-.39,.87-1.07,1.83-2.29,3.75-3.63,5.74-1.46,2.17-2.97,4.38-4.51,6.63-1.53,2.23-3.05,4.54-4.52,6.85-1.47,2.32-2.8,4.62-3.94,6.86-1.15,2.25-2.09,4.49-2.8,6.66-.72,2.21-1.06,4.33-1.02,6.31,0,.03,0,.06,0,.09,.03,.18,.12,.44,.45,.67,.21,.14,.45,.2,.69,.17,.14-.02,.27-.07,.37-.14,.1-.06,.2-.14,.3-.26,.02-.03,.04-.06,.06-.09,3.65-6.17,7.34-11.9,10.97-17.06,3.62-5.16,7.28-9.9,10.86-14.11,.52-.59,1.3-1.47,2.33-2.61,1.04-1.15,2.26-2.42,3.62-3.79,1.36-1.37,2.83-2.79,4.37-4.23,1.53-1.43,3.06-2.77,4.52-3.97,1.45-1.19,2.83-2.19,4.12-2.99,1.17-.73,2.15-1.16,2.91-1.27,.07,.97-.22,2.19-.85,3.63-.71,1.63-1.66,3.47-2.82,5.47-1.17,2.03-2.49,4.23-3.92,6.54-1.44,2.34-2.82,4.77-4.09,7.23-1.27,2.47-2.38,5-3.29,7.51-.93,2.55-1.47,5.06-1.61,7.48,0,.05,0,.09,0,.14,.05,.36,.25,.56,.4,.67,.21,.15,.47,.21,.73,.17,.23-.03,.42-.13,.55-.28,.09-.07,.16-.16,.21-.26,.93-1.88,2.12-4.04,3.53-6.41,1.42-2.37,3.03-4.86,4.78-7.39,1.77-2.54,3.66-5.13,5.62-7.68,1.97-2.56,4.01-5.02,6.05-7.31,2.04-2.29,4.11-4.38,6.16-6.23,2.02-1.84,3.99-3.34,5.84-4.46,.89-.55,1.65-.87,2.25-.95,.12-.02,.22-.02,.29-.02,.17,0,.23,.02,.23,.02,.12,.12,.19,.28,.22,.45,.08,.74-.13,1.7-.63,2.84-.53,1.22-1.27,2.61-2.19,4.13-.93,1.53-2.02,3.24-3.25,5.08-1.23,1.85-2.5,3.81-3.75,5.82-1.26,2.01-2.5,4.15-3.69,6.34-1.19,2.21-2.21,4.47-3.04,6.73-.83,2.27-1.44,4.58-1.81,6.87-.38,2.32-.41,4.64-.07,6.91,.28,1.9,.86,3.62,1.71,5.13,.86,1.53,1.99,2.82,3.35,3.83,1.36,1.02,2.95,1.76,4.73,2.2,1.11,.28,2.29,.42,3.52,.42,.73,0,1.49-.05,2.25-.15,.24-.03,.44-.12,.6-.26,.21-.19,.31-.46,.26-.74-.04-.26-.17-.48-.38-.62-.21-.15-.47-.2-.75-.17-.57,.07-1.13,.11-1.68,.12-.06-.03-.11-.05-.17-.08-.63-.18-1.16-.47-1.56-.87-.41-.41-.72-.89-.9-1.44-.47-1.35-.33-2.79,.4-4.27,.71-1.44,1.72-3.21,2.99-5.25,1.27-2.03,2.76-4.27,4.44-6.65,1.67-2.37,3.53-4.83,5.52-7.32,1.99-2.49,4.09-4.95,6.24-7.32,2.15-2.37,4.35-4.59,6.55-6.58,2.19-1.99,4.38-3.72,6.49-5.12,2.1-1.4,4.14-2.4,6.05-2.97,1.16-.35,2.2-.38,3.11-.1,.88,.27,1.55,1.05,1.99,2.32,.41,1.17,.7,2.7,.87,4.56,.17,1.87,.25,3.87,.23,5.94-.02,2.02-.11,3.96-.26,5.76-1.15,.44-5.84,.82-6.83,1.11-.52,.15-.98,.29-1.4,.39-.36,.09-.68,.17-.94,.22-.7-.42-1.62-.79-2.76-1.09-1.17-.31-2.44-.56-3.79-.73-1.35-.17-2.71-.23-4.02-.2-1.33,.04-2.52,.21-3.55,.52-.68,.2-1.27,.47-1.74,.8-.48,.34-.83,.76-1.04,1.24-.13,.3-.14,.62-.02,.97,.24,.7,1,1.17,2.24,1.42,.96,.18,2.17,.23,3.6,.15,1.4-.08,2.85-.23,4.3-.45,1.41-.21,2.6-.37,3.54-.47,1.45-.19,2.32-.29,2.59-.3,.03,0,.72,.06,1.65,.41,.61,.23,2.07,.87,3.16,1.32,.78,.33,2.85,1.05,3.46,1.58,.6,.51,1.06,.97,1.38,1.35,.11,.32,.19,.46,.25,.53,.24,.5,.7,.68,1.3,.5,.44-.13,.83-.45,1.15-.94,.33-.51,.37-1.03,.12-1.5-.04-.11-.13-.29-.28-.55-.13-.23-.26-.5-.36-.81l-.13-.36c-.03-.09-.05-.17-.05-.29-.09-.59-.13-1.34-.09-2.22,.03-.81,.07-1.45,.13-1.92,1.42-.64,2.78-1.35,4.04-2.1,1.32-.79,2.36-1.65,3.08-2.56,.76-.95,.97-1.91,.65-2.85Zm-24.35,9.55c-1.17,.16-2.37,.28-3.56,.37-1.19,.09-2.17,.13-2.92,.11-.29-.01-.61-.08-.95-.19-.41-.13-.47-.25-.48-.27,0,0,.01-.18,.85-.43l.56-.17c.87-.2,1.8-.3,2.78-.3,.15,0,.31,0,.47,0,1.17,.04,2.3,.14,3.38,.31,.6,.09,1.13,.19,1.59,.29-.49,.09-1.06,.17-1.71,.26Zm11.07,1.28c-1.26-.43-3.36-.88-3.91-1.22,.41-.12,1.18-.25,1.7-.39,3.54-.98,5.36-.7,5.34-.75-.01,.48,0,.97,.04,1.48,.05,.63,.09,1.24,.15,1.85,.03,.19,.07,.36,.09,.53-.57-.52-2.62-1.22-3.41-1.5Z"/>
      <rect class="cls-1" x="160.89" width="1.42" height="64.97"/>
    </g>
  </g>
</svg>